<?xml version="1.0" encoding="utf-8"?><svg viewBox="0 0 54 54" xmlns="http://www.w3.org/2000/svg" xmlns:xlink="http://www.w3.org/1999/xlink"><style>:root>svg{display:none}:root>svg:target{display:block}</style><svg fill="none" viewBox="0 0 54 54" id="icons--arrow-left" xmlns="http://www.w3.org/2000/svg"><path d="M10.94 25.94a1.5 1.5 0 000 2.12l9.545 9.547a1.5 1.5 0 102.122-2.122L14.12 27l8.486-8.485a1.5 1.5 0 10-2.122-2.122L10.94 25.94zM42 25.5H12v3h30v-3z" fill="#fff"/><circle r="26" transform="matrix(-1 0 0 1 27 27)" stroke="#fff" stroke-width="2"/></svg><svg fill="none" viewBox="0 0 54 54" id="icons--arrow-right" xmlns="http://www.w3.org/2000/svg"><path d="M43.06 25.94a1.5 1.5 0 010 2.12l-9.545 9.547a1.5 1.5 0 11-2.122-2.122L39.88 27l-8.486-8.485a1.5 1.5 0 112.122-2.122l9.546 9.546zM12 25.5h30v3H12v-3z" fill="#fff"/><circle cx="27" cy="27" r="26" stroke="#fff" stroke-width="2"/></svg><svg fill="none" viewBox="0 0 14 10" id="icons--check" xmlns="http://www.w3.org/2000/svg"><path d="M13 1L4.75 9 1 5.364" stroke="#fff" stroke-width="2" stroke-linecap="round" stroke-linejoin="round"/></svg><svg viewBox="0 0 18 18" id="icons--close" xmlns="http://www.w3.org/2000/svg"><defs><path id="da" d="M691.485 160.07l-1.414 1.415-7.071-7.071-7.071 7.071-1.414-1.414 7.07-7.071-7.07-7.071 1.414-1.415 7.07 7.071 7.072-7.07 1.414 1.414-7.07 7.07z"/></defs><use fill="#fff" xlink:href="#da" transform="translate(-674 -144)"/></svg><svg viewBox="0 0 13 24" id="icons--p-left" xmlns="http://www.w3.org/2000/svg"><path fill-rule="evenodd" fill="#fff" d="M1.453 12l11.535 11.284-.721.705L.732 12.705.011 12l.721-.705L12.267.01l.721.705L1.453 12z"/></svg><svg fill="#fff" viewBox="0 0 14 25" id="icons--p-right" xmlns="http://www.w3.org/2000/svg"><path fill-rule="evenodd" d="M12.107 12.5L.793 1.186 1.5.479l11.314 11.314.707.707-.707.707L1.5 24.521l-.707-.707L12.107 12.5z"/></svg><svg fill="none" viewBox="0 0 28 32" id="icons--play" xmlns="http://www.w3.org/2000/svg"><path d="M27 14.268c1.333.77 1.333 2.694 0 3.464L3 31.59c-1.333.77-3-.193-3-1.733V2.144C0 .604 1.667-.358 3 .412l24 13.856z" fill="#fff"/></svg></svg>